<svg width="36" height="49" viewBox="0 0 36 49" fill="none" xmlns="http://www.w3.org/2000/svg">
<g clip-path="url(#clip0_0_227)">
<path d="M25.6285 30.6557C24.0957 29.003 22.954 27.2649 22.8735 24.9321H12.9245C12.844 27.2649 11.7039 29.003 10.1695 30.6557C3.6853 37.36 8.62526 48.5197 17.8974 48.5C27.1727 48.5197 32.1094 37.3567 25.6252 30.6557H25.6285Z" fill="#F7EC58"/>
<path d="M34.2764 17.9698C33.6209 17.431 32.8487 17.3077 32.0306 17.3077C27.3206 17.3094 8.48076 17.3094 3.77079 17.3077C2.95266 17.3077 2.18054 17.4293 1.52505 17.9698C0.588643 18.7403 0.23215 19.9839 0.619856 21.1289C1.00756 22.2723 1.96697 22.9426 3.3223 22.9459C8.18177 22.9574 27.6196 22.9574 32.4791 22.9459C35.2785 23.0346 36.2937 19.6175 34.2764 17.9698Z" fill="#F7EC58"/>
<path d="M27.6788 9.13139C27.0184 4.0025 22.6632 0.504928 17.9007 0.5C13.1365 0.504928 8.78139 4.0025 8.12262 9.13139C7.86141 11.1652 8.20804 13.1317 9.20195 14.9486C9.30874 15.1441 9.56994 15.3774 9.7638 15.3807C11.3803 15.4152 12.9985 15.4004 14.6151 15.4004C12.8983 14.0763 11.9307 12.3891 11.9175 10.2436C11.906 8.62376 12.5205 7.21093 13.6852 6.06095C14.8615 4.89948 16.3844 4.34092 17.9007 4.37213C19.4187 4.34092 20.9399 4.89948 22.1162 6.06095C23.2809 7.21093 23.8954 8.62376 23.8839 10.2436C23.8691 12.3891 22.9014 14.0763 21.1863 15.4004C22.8045 15.4004 24.4211 15.4152 26.0376 15.3807C26.2314 15.3758 26.4927 15.1425 26.5994 14.9486C27.5933 13.1317 27.94 11.1636 27.6788 9.13139Z" fill="#F7EC58"/>
</g>
<defs>
<clipPath id="clip0_0_227">
<rect width="34.869" height="48" fill="white" transform="translate(0.465332 0.5)"/>
</clipPath>
</defs>
</svg>
