<svg width="61" height="49" viewBox="0 0 61 49" fill="none" xmlns="http://www.w3.org/2000/svg">
<path d="M37.858 24.4843C37.8543 20.2842 34.4762 16.9263 30.2613 16.9337C29.6716 16.9337 29.1002 17.0055 28.551 17.1327L37.6571 26.2388C37.788 25.6767 37.8598 25.0888 37.858 24.4843Z" fill="#F7EC58"/>
<path d="M40.0196 32.3648L36.4977 28.8429L25.9486 18.2938L22.3253 14.6706L15.628 7.97322L8.15294 0.5L3.56212 5.09082L10.1212 11.6499C6.10172 14.9138 2.92077 18.9186 0.412495 23.5168C0.0181006 24.2392 0.0181006 24.7571 0.412495 25.4795C4.07999 32.1676 9.05415 37.562 15.8657 41.1245C22.0268 44.3478 28.5638 45.3891 35.4214 44.2262C37.4045 43.8907 39.3082 43.3655 41.1402 42.6689L46.9713 48.5L51.5621 43.9092L47.2201 39.5671L40.0196 32.3667V32.3648ZM30.1561 37.0791C23.1455 37.0054 17.5686 31.3991 17.6147 24.4714C17.6258 22.8865 17.9225 21.3753 18.4551 19.9838L22.7326 24.2613C22.7308 24.3369 22.7253 24.4106 22.7253 24.4862C22.7216 28.6955 26.0887 32.0663 30.2925 32.0663C30.3717 32.0663 30.451 32.0608 30.5302 32.0589L34.7266 36.2553C33.3076 36.8027 31.765 37.0976 30.1561 37.081V37.0791Z" fill="#F7EC58"/>
<path d="M59.5956 22.8514C55.9797 16.471 51.1217 11.331 44.5773 7.89941C38.3979 4.65764 31.8498 3.61268 24.97 4.76822C22.5981 5.1663 20.335 5.83714 18.1713 6.75493L24.6217 13.2053C26.3025 12.376 28.1989 11.9115 30.2077 11.9171C37.1833 11.9373 42.7731 17.5307 42.7786 24.4953C42.7786 26.4931 42.3123 28.384 41.483 30.0647L49.4262 38.0079C53.0844 35.2158 56.0977 31.8303 58.5322 27.914C59.2049 26.8322 59.8223 25.7153 60.4655 24.6151V24.3792C60.1743 23.8705 59.8831 23.3619 59.5938 22.8514H59.5956Z" fill="#F7EC58"/>
</svg>
