<svg width="34" height="29" viewBox="0 0 34 29" fill="none" xmlns="http://www.w3.org/2000/svg">
<path d="M33.3771 13.5622L1.38652 0.585085C1.06501 0.44359 0.723404 0.484017 0.44208 0.665939C0.160756 0.868075 0 1.17128 0 1.51491V27.4893C0 27.833 0.160756 28.1362 0.44208 28.3181C0.602837 28.4394 0.803782 28.5 1.00473 28.5C1.1253 28.5 1.26596 28.4798 1.38652 28.4191L33.3771 15.4218C33.7589 15.2601 34 14.8963 34 14.492C34 14.0877 33.7589 13.7239 33.3771 13.5622ZM2.00946 25.9935V16.2102C2.31087 16.3921 2.63239 16.5134 3.01418 16.5134H13.4634C14.5686 16.5134 15.4728 15.6038 15.4728 14.492C15.4728 13.3803 14.5686 12.4707 13.4634 12.4707H3.01418C2.63239 12.4707 2.31087 12.5919 2.00946 12.7739V3.01071L30.3026 14.492L2.00946 25.9935Z" fill="white"/>
</svg>
