<svg width="65" height="83" viewBox="0 0 65 83" fill="none" xmlns="http://www.w3.org/2000/svg">
<path fill-rule="evenodd" clip-rule="evenodd" d="M2.5 0.777771C1.39543 0.777771 0.5 1.6732 0.5 2.77777V80.5555C0.5 81.6601 1.39543 82.5555 2.5 82.5555H62.5C63.6046 82.5555 64.5 81.6601 64.5 80.5555V22.1111L43.1667 0.777771H2.5Z" fill="#7F7738"/>
<path d="M64.5 22.1111L43.1666 0.777771V22.1111H64.5Z" fill="#66602E"/>
<path fill-rule="evenodd" clip-rule="evenodd" d="M11.168 25.6667H53.8346V64.7779H11.168V25.6667ZM15.0469 29.5778H30.562V37.4001H15.0469V29.5778ZM30.562 41.3112H15.0469V49.1335H30.562V41.3112ZM15.0469 53.0446H30.562V60.8669H15.0469V53.0446ZM49.9566 29.5778H34.4414V37.4001H49.9566V29.5778ZM34.4414 41.3112H49.9566V49.1335H34.4414V41.3112ZM49.9566 53.0446H34.4414V60.8669H49.9566V53.0446Z" fill="white"/>
</svg>
