<svg width="65" height="83" viewBox="0 0 65 83" fill="none" xmlns="http://www.w3.org/2000/svg">
<path fill-rule="evenodd" clip-rule="evenodd" d="M43.1668 0.555542H2.5C1.39543 0.555542 0.5 1.45097 0.5 2.55554V80.3333C0.5 81.4379 1.39543 82.3333 2.5 82.3333H62.5C63.6046 82.3333 64.5 81.4379 64.5 80.3333V21.8887L43.1668 0.555542Z" fill="#B3A842"/>
<path d="M64.5 21.8889L43.1666 0.555542V21.8889H64.5Z" fill="#F7EC58"/>
<path fill-rule="evenodd" clip-rule="evenodd" d="M15.7227 32.5555C15.1704 32.5555 14.7227 33.0033 14.7227 33.5555V67.1111C14.7227 67.6634 15.1704 68.1111 15.7227 68.1111H49.2782C49.8305 68.1111 50.2782 67.6634 50.2782 67.1111V33.5555C50.2782 33.0033 49.8305 32.5555 49.2782 32.5555H15.7227ZM46.7218 39.6667H18.2773V61H46.7218V39.6667Z" fill="white"/>
</svg>
