<svg width="28" height="33" viewBox="0 0 28 33" fill="none" xmlns="http://www.w3.org/2000/svg">
<path fill-rule="evenodd" clip-rule="evenodd" d="M1.10528 32.136C2.42112 32.276 5.24876 32.5 9.28026 32.5C16.1954 32.5 20.8148 31.5761 23.8104 29.5884C26.3581 27.7686 27.646 25.5009 27.646 22.8412C27.646 19.0337 24.7343 16.57 21.4867 15.2822C24.4264 13.7703 26.1621 11.4746 26.1621 8.89895C26.1621 6.26728 24.8183 4.13954 22.2986 2.79571C19.611 1.17192 16.1394 0.5 10.7361 0.5C7.26451 0.5 3.56897 0.751969 1.07728 1.11592L0.181396 1.25591V32.0521L1.10528 32.136ZM10.7921 27.4326C9.39224 27.4326 8.30038 27.4046 7.48848 27.3486V18.1378H10.7361C12.9478 18.1378 20.0869 18.4738 20.0869 22.7572C20.0869 26.9847 13.5917 27.4326 10.7921 27.4326ZM11.156 13.1544H7.48848V5.65136C8.44036 5.56737 9.64421 5.51137 11.044 5.51137C16.1954 5.51137 18.8271 6.77122 18.8271 9.26291C18.8271 11.5866 15.7475 13.1544 11.156 13.1544Z" fill="#69738E"/>
</svg>
